<?xml version="1.0" encoding="UTF-8"?>
<svg xmlns="http://www.w3.org/2000/svg" xmlns:xlink="http://www.w3.org/1999/xlink" width="24px" height="24px" viewBox="0 0 24 24" version="1.1">
  <title>cloud_base_logo</title>
  <g id="云托管二期" stroke="none" stroke-width="1" fill="none" fill-rule="evenodd">
    <g id="部署发布_版本信息" transform="translate(-345.000000, -233.000000)">
      <g id="Title" transform="translate(16.000000, 40.000000)">
        <g id="编组-7" transform="translate(8.000000, 6.000000)">
          <g id="logo" transform="translate(321.000000, 187.000000)">
            <rect id="Rectangle" x="0" y="0" width="24" height="24"></rect>
            <path d="M16.2203912,17.9020052 L14.3909126,17.9020052 C14.6636287,17.7074914 14.9313392,17.4885012 15.1996059,17.2426239 C16.5238829,16.0295551 17.522977,14.0662453 16.7663797,12.8168326 C16.2240991,11.9217725 14.9580361,11.730411 13.6880799,12.3512233 C13.149878,12.6143454 12.4626184,12.8251768 12.2985438,12.5533396 C12.132059,12.2776085 12.3417409,11.5353409 13.1682321,10.8587148 C13.9163012,10.2462466 14.7320395,9.89226493 15.6616104,9.77655797 C16.8731672,9.62487801 18.0242852,9.96903205 18.9008331,10.7433786 C19.778308,11.5184669 20.3022345,12.6684903 20.3022345,13.8196262 C20.3022345,16.07072 18.4710874,17.9020052 16.2203912,17.9020052 M19.7601393,9.77043885 C18.6008639,8.7465064 17.0887817,8.2912811 15.5016145,8.48820544 L15.5014291,8.48820544 C14.3215748,8.63506428 13.2892951,9.08213077 12.3463757,9.85443765 C11.0880994,10.8843038 10.611634,12.2701913 11.1874711,13.2238466 C11.4998618,13.7415611 12.3139316,14.4680674 14.2579843,13.5173789 C14.9671205,13.1706289 15.5077325,13.2442437 15.6564194,13.4895647 C15.9343266,13.9483132 15.4013157,15.2976714 14.323058,16.2854455 C13.1910357,17.3227287 12.0942384,17.8888399 9.59047798,17.9008927 C6.33790682,17.8766016 3.69899336,15.3015654 3.69899336,11.7910459 C3.69899336,8.66788501 5.9774988,6.43681742 8.44918591,6.17184106 C10.1490733,5.98975094 11.3756471,6.35967945 12.2440377,6.89964527 C12.8690044,7.28848742 13.3916332,7.63635002 13.7043946,7.48318664 C14.0164146,7.33039411 13.9431835,6.74425676 13.5766574,6.37544081 C12.6298448,5.42178551 10.980941,4.61128049 8.57154666,4.83861501 C5.25167709,5.1518026 2.47353193,7.77857316 2.40141324,11.7674965 C2.32224955,16.1432223 5.57945558,19.1299083 9.51094349,19.1968477 L9.51094349,19.2 L16.2203912,19.2 C19.1867123,19.2 21.6,16.786286 21.6,13.8196262 C21.6,12.2794627 20.9292406,10.8036427 19.7601393,9.77043885" id="Fill-1" fill="#07C160"></path>
          </g>
        </g>
      </g>
    </g>
  </g>
</svg>
