<svg xmlns="http://www.w3.org/2000/svg" width="171.074" height="59.218" viewBox="0 0 171.074 59.218">
  <path id="django" d="M20.167,0h9.361V42.9a61.913,61.913,0,0,1-12.144,1.264C5.951,44.156,0,39.048,0,29.238c0-9.452,6.313-15.586,16.1-15.586a15.226,15.226,0,0,1,4.072.477V0Zm0,21.589a9.426,9.426,0,0,0-3.156-.477c-4.735,0-7.469,2.888-7.469,7.949,0,4.928,2.614,7.649,7.409,7.649a22.091,22.091,0,0,0,3.217-.237V21.589Zm24.239-7.28V35.79c0,7.4-.554,10.955-2.181,14.022-1.518,2.949-3.518,4.808-7.65,6.862L25.89,52.581c4.132-1.92,6.132-3.617,7.409-6.207,1.337-2.648,1.759-5.715,1.759-13.783V14.309ZM35.058.048h9.361V9.559H35.058Zm15,16.373a28.453,28.453,0,0,1,12.4-2.769c4.807,0,7.962,1.265,9.361,3.735.783,1.384,1.036,3.186,1.036,7.041V43.261a104.872,104.872,0,0,1-13.362,1.025c-7.843,0-11.361-2.709-11.361-8.723,0-6.5,4.676-9.511,16.156-10.467V23.055c0-1.683-.855-2.291-3.217-2.291a24.783,24.783,0,0,0-11,2.828Zm14.65,14.737c-6.192.6-8.2,1.565-8.2,3.974,0,1.8,1.157,2.651,3.711,2.651a26.191,26.191,0,0,0,4.492-.418V31.159ZM77.4,15.753a56.583,56.583,0,0,1,14.7-2.1c4.795,0,8.266,1.086,10.325,3.186,1.938,1.981,2.555,4.153,2.555,8.783V43.8H95.619V25.992c0-3.556-1.217-4.881-4.553-4.881a13.992,13.992,0,0,0-4.313.668V43.8H77.4Zm31.215,33.1a21.439,21.439,0,0,0,10.023,2.46c6.132,0,8.746-2.47,8.746-8.366v-.179a13,13,0,0,1-6.073,1.266c-8.2,0-13.42-5.358-13.42-13.843,0-10.538,7.722-16.493,21.384-16.493A59.3,59.3,0,0,1,141.5,15.026l-3.2,6.683c-2.491-.477-.2-.072-2.083-.251v.967l.12,3.914.059,5.06c.061,1.266.061,2.529.123,3.8v2.529c0,7.948-.676,11.673-2.676,14.752-2.915,4.51-7.962,6.743-15.133,6.743a26.894,26.894,0,0,1-10.082-1.8V48.857Zm18.589-27.686h-.977a10.28,10.28,0,0,0-5.409,1.325c-2.24,1.265-3.395,3.556-3.395,6.8,0,4.629,2.313,7.28,6.445,7.28a11.662,11.662,0,0,0,3.518-.6v-3.2c0-1.086-.061-2.291-.061-3.556l-.059-4.272-.061-3.067Zm28.805-7.638c9.349,0,15.059,5.836,15.059,15.287,0,9.69-5.95,15.764-15.434,15.764-9.361,0-15.133-5.835-15.133-15.225C140.522,19.608,146.473,13.533,156.014,13.533Zm-.193,23.58c3.59,0,5.71-2.947,5.71-8.066,0-5.06-2.061-8.067-5.649-8.067-3.711,0-5.833,2.948-5.833,8.067s2.134,8.066,5.772,8.066Zm0,0" fill="#fff"/>
</svg>
