<svg xmlns="http://www.w3.org/2000/svg" width="127.794" height="94.899" viewBox="0 0 127.794 94.899">
  <path id="nuxt-dot-js" d="M105.14,223.341l.122-.24a3.94,3.94,0,0,0,.282-.623l.011-.027a6.178,6.178,0,0,0,.288-3.233l.005.037a9.559,9.559,0,0,0-1.251-3.318l.027.043L76.308,166.173l-4.324-7.562-4.3,7.562-28.3,49.809A9.852,9.852,0,0,0,38.3,219.2l-.005.059a6.694,6.694,0,0,0,.426,3.8l-.016-.043a4.309,4.309,0,0,0,.266.543l-.011-.021c.852,1.465,2.663,3.206,6.657,3.206H98.329c.836,0,4.926-.17,6.817-3.392ZM71.979,173.73l25.876,45.522H46.113Zm54.58,42.252L89.2,150.159c-.383-.692-2.54-4.191-6.295-4.191-1.688,0-4.111.719-6.082,4.18l-4.83,8.467,4.3,7.562,6.657-11.78,36.964,64.864H105.848a6.321,6.321,0,0,1-.309,3.238l.016-.043a4.113,4.113,0,0,1-.3.671l.011-.021-.122.24c-1.891,3.222-5.975,3.392-6.774,3.392h21.989c.809,0,4.883-.17,6.774-3.392.836-1.465,1.438-3.925-.57-7.36ZM39,223.528a5.267,5.267,0,0,1-.24-.49l-.011-.032a6.54,6.54,0,0,1-.447-3.792l-.005.037H8.095l44.888-78.987,14.735,25.9,4.271-7.562L59.144,135.978c-.357-.65-2.53-4.138-6.268-4.138-1.688,0-4.111.73-6.082,4.191L1.326,215.976c-.383.692-2.263,4.324-.4,7.546.852,1.464,2.663,3.206,6.657,3.206H45.666c-3.967,0-5.8-1.715-6.657-3.206Z" transform="translate(-0.116 -131.84)" fill="#fff"/>
</svg>
