<svg xmlns="http://www.w3.org/2000/svg" width="33" height="33" viewBox="0 0 33 33">
  <g id="云服务控制台_icons_outlined_copy_link" transform="translate(0.251 -0.11)">
    <path id="Path_88" data-name="Path 88" d="M31.257,8a1.368,1.368,0,0,1,1.368,1.368V25.785a1.368,1.368,0,0,1-1.368,1.368H27.152v4.105a1.368,1.368,0,0,1-1.368,1.368H9.368A1.368,1.368,0,0,1,8,31.257V14.84a1.368,1.368,0,0,1,1.368-1.368h4.1v-4.1A1.368,1.368,0,0,1,14.84,8Zm-5.746,7.114H9.642v15.87h15.87Zm5.472-5.472H15.114v3.83H25.785a1.368,1.368,0,0,1,1.368,1.368V25.51h3.832Z" transform="translate(-3.896 -3.872)" fill="#00000066"/>
    <rect id="Rectangle_8" data-name="Rectangle 8" width="33" height="33" transform="translate(-0.251 0.11)" opacity="0"/>
  </g>
</svg>
