<svg width="40" height="40" viewBox="0 0 40 40" fill="none" xmlns="http://www.w3.org/2000/svg">
<path d="M25.4336 19.0333V21.0333H17.4336V19.0333H25.4336ZM8.43359 12.12L14.9303 15.8333C15.0789 15.9169 15.2036 16.037 15.2927 16.1824C15.3818 16.3277 15.4322 16.4934 15.4392 16.6638C15.4463 16.8341 15.4096 17.0034 15.3328 17.1556C15.2559 17.3078 15.1415 17.4378 15.0003 17.5333L14.9469 17.57L8.43359 21.28V18.9766L12.4336 16.7L8.43359 14.4233V12.12ZM34.7669 6.69995C35.2849 6.6996 35.7828 6.90022 36.1558 7.25958C36.5289 7.61893 36.7479 8.109 36.7669 8.62662V19.0333H34.7669V8.69995H5.43359V31.3666H23.4336V33.3666H5.43359C4.91618 33.367 4.41876 33.1668 4.04581 32.8082C3.67287 32.4495 3.45343 31.9603 3.43359 31.4433V8.69995C3.43321 8.18254 3.63337 7.68511 3.99202 7.31217C4.35067 6.93922 4.83989 6.71979 5.35693 6.69995H34.7669Z" fill="black" fill-opacity="0.9"/>
<path opacity="0.5" d="M31.6004 20.8132C31.719 20.6344 31.892 20.4985 32.0938 20.4255C32.2956 20.3526 32.5155 20.3465 32.7211 20.4081C32.9266 20.4698 33.1069 20.5959 33.2352 20.7679C33.3635 20.9399 33.4331 21.1486 33.4337 21.3632V21.4199L33.1537 26.6999H37.7671C37.9454 26.7001 38.1205 26.7481 38.2741 26.8388C38.4278 26.9295 38.5543 27.0596 38.6407 27.2157C38.7271 27.3718 38.7701 27.5481 38.7654 27.7264C38.7606 27.9048 38.7083 28.0786 38.6137 28.2299L38.5837 28.2765L32.2504 37.2765C32.1282 37.4494 31.9543 37.5791 31.7538 37.6469C31.5532 37.7146 31.3363 37.717 31.1343 37.6536C30.9323 37.5902 30.7557 37.4644 30.6298 37.2942C30.5039 37.124 30.4352 36.9182 30.4337 36.7065V36.6465L30.7137 31.3665H26.4337C26.2619 31.3669 26.0928 31.323 25.9429 31.239C25.793 31.155 25.6672 31.0338 25.5778 30.887C25.4883 30.7403 25.4382 30.573 25.4322 30.4013C25.4263 30.2295 25.4647 30.0591 25.5437 29.9065L25.5704 29.8599L25.6004 29.8132L31.6004 20.8132Z" fill="#07C160"/>
</svg>
