<svg width="40" height="40" viewBox="0 0 40 40" fill="none" xmlns="http://www.w3.org/2000/svg">
<path opacity="0.9" fill-rule="evenodd" clip-rule="evenodd" d="M33 33.0625C33.0345 33.0625 33.0625 33.0345 33.0625 33V7C33.0625 6.96548 33.0345 6.9375 33 6.9375L7 6.9375C6.96548 6.9375 6.9375 6.96548 6.9375 7V17H5.0625V7C5.0625 5.92995 5.92995 5.0625 7 5.0625L33 5.0625C34.0701 5.0625 34.9375 5.92995 34.9375 7V33C34.9375 34.0701 34.0701 34.9375 33 34.9375H23V33.0625H33Z" fill="black"/>
<g opacity="0.5">
<path d="M10.6665 28.3334C10.6665 28.8857 11.1142 29.3334 11.6665 29.3334H21.6665C22.2188 29.3334 22.6665 28.8857 22.6665 28.3334V18.3334C22.6665 17.7811 22.2188 17.3334 21.6665 17.3334H11.6665C11.1142 17.3334 10.6665 17.7811 10.6665 18.3334V28.3334Z" fill="#07C160"/>
<path fill-rule="evenodd" clip-rule="evenodd" d="M26.0605 13.9394V18.6667H27.9391V13.0001C27.9391 12.4813 27.5186 12.0608 26.9998 12.0608H21.3332V13.9394H26.0605Z" fill="#07C160"/>
<path fill-rule="evenodd" clip-rule="evenodd" d="M6.93912 33.0608V28.3334H5.06055V34.0001C5.06055 34.5188 5.48108 34.9394 5.99983 34.9394H11.6665V33.0608H6.93912Z" fill="#07C160"/>
</g>
</svg>
