<svg id="logo" xmlns="http://www.w3.org/2000/svg" width="365" height="365" viewBox="0 0 365 365">
  <rect id="Rectangle-664" width="365" height="365" fill="none"/>
  <path id="Path_84" data-name="Path 84" d="M258.317,67.428,138.372,5.082a8.033,8.033,0,0,0-7.85,0L10.575,67.428A8.581,8.581,0,0,0,5.92,75V224.161a8.581,8.581,0,0,0,4.655,7.576l119.946,62.346a8.216,8.216,0,0,0,7.85,0L189.216,267.7l-7.85-15.153-38.339,19.808v-129.8l102.785-53.4v57.417h17.161V75a8.581,8.581,0,0,0-4.655-7.576ZM134.446,22.335,235.771,75l-101.324,52.67L33.122,75ZM23.081,89.154l102.785,53.4v129.8l-102.785-53.4Z" transform="translate(48.12 32.983)" fill="#2c2c2c"/>
  <path id="Path_85" data-name="Path 85" d="M68.131,19.34,22.49,43.074V62.334L68.131,38.6Z" transform="translate(212.805 129.102)" fill="#07c160" opacity="0.5" style="isolation: isolate"/>
  <path id="Path_86" data-name="Path 86" d="M125.966,44.873,83.336,22.691a9.128,9.128,0,0,0-8.4,0L32.309,44.873A9.128,9.128,0,0,0,27.38,53v52.944a9.128,9.128,0,0,0,4.929,8.124l42.629,22.182a9.128,9.128,0,0,0,8.4,0l42.629-22.182a9.128,9.128,0,0,0,4.929-8.124V53A9.128,9.128,0,0,0,125.966,44.873Z" transform="translate(222.553 176.123)" fill="#07c160" opacity="0.5" style="isolation: isolate"/>
  <path id="Path_88" data-name="Path 88" d="M1439.365,1025.358v-9.209l24.524,5.526v8.052l-24.524,21.471v-10.683l16.788-12.683Z" transform="translate(-1239 -839)" fill="#07c160" opacity="0.505"/>
</svg>
