<svg width="134" height="28" viewBox="0 0 134 28" fill="none" xmlns="http://www.w3.org/2000/svg">
<path d="M12.0201 11.2799L12.8201 12.5599L13.3201 11.6799C13.5334 13.4666 14.0134 15.1732 14.7601 16.7999C14.3334 17.5332 13.8467 18.2199 13.3001 18.8599C12.6067 19.6599 11.8667 20.4132 11.0801 21.1199L12.1201 22.1199C12.8134 21.4399 13.4801 20.7332 14.1201 19.9999C14.6134 19.4266 15.0667 18.8199 15.4801 18.1799C16.3201 19.5399 17.3067 20.8065 18.4401 21.9799L19.4801 20.8199C18.2134 19.6332 17.1467 18.2932 16.2801 16.7999C16.7867 15.7732 17.1801 14.6999 17.4601 13.5799C17.8067 12.0332 18.0467 10.4666 18.1801 8.87988H19.1801V7.51988H14.9601C15.2801 6.47988 15.5401 5.41322 15.7401 4.31988L14.4401 4.15988C14.0134 6.66655 13.2067 9.03988 12.0201 11.2799ZM4.54008 21.1199L5.74008 21.8399C6.08674 21.4266 6.41341 20.9932 6.72008 20.5399C6.89341 20.2599 7.04674 19.9732 7.18008 19.6799C7.34008 19.2932 7.45341 18.8932 7.52008 18.4799C7.58675 18.0132 7.62008 17.5399 7.62008 17.0599V16.0599H9.92008V18.7999C9.89341 19.1465 9.74675 19.4265 9.48008 19.6399L10.3601 20.5399L11.0801 19.8599C11.7201 19.3132 12.3801 18.7799 13.0601 18.2599L12.6801 17.1199C12.2001 17.5599 11.7067 17.9732 11.2001 18.3599V14.7799H6.32008V16.7799C6.32008 17.2599 6.28675 17.7332 6.22008 18.1999C6.16675 18.5732 6.06675 18.9399 5.92008 19.2999C5.80008 19.5665 5.65341 19.8132 5.48008 20.0399C5.18675 20.4132 4.87341 20.7732 4.54008 21.1199ZM0.580078 14.7199L1.20008 16.1399C1.77341 15.4999 2.31341 14.8266 2.82008 14.1199V21.9199H4.14008V12.1199C4.62008 11.3199 5.06008 10.4932 5.46008 9.63988L4.28008 8.99988C3.29341 11.0799 2.06008 12.9866 0.580078 14.7199ZM5.88008 5.57988V10.0599H12.1601V5.57988H10.9601V8.81988H9.62008V4.05988H8.42008V8.81988H7.08008V5.57988H5.88008ZM14.5201 8.87988H16.9201C16.8134 10.1199 16.6267 11.3399 16.3601 12.5399C16.1601 13.4732 15.8801 14.3732 15.5201 15.2399C15.1334 14.3466 14.8401 13.4265 14.6401 12.4799C14.4401 11.5332 14.3067 10.5799 14.2401 9.61988C14.3201 9.37988 14.4134 9.13322 14.5201 8.87988ZM5.28008 11.7799V13.0599H12.1201V11.7799H5.28008ZM0.880078 9.25988L1.92008 10.2199C3.33341 8.63322 4.58008 6.91322 5.66008 5.05988L4.46008 4.31988C3.44674 6.10655 2.25341 7.75322 0.880078 9.25988Z" fill="black"/>
<path d="M27.2801 15.3799V21.9399H28.7801V20.8199H36.0201V21.9399H37.5201V15.3799H27.2801ZM20.6001 12.7999L21.5601 14.1199C22.1601 13.3065 22.7267 12.4599 23.2601 11.5799V21.9799H24.7201V8.65988C25.2801 7.31322 25.7601 5.93322 26.1601 4.51988L24.7001 4.09988C24.2201 5.81988 23.5934 7.47988 22.8201 9.07988C22.1934 10.3999 21.4534 11.6399 20.6001 12.7999ZM31.0801 4.37988C31.4534 5.04655 31.8201 5.71322 32.1801 6.37988H26.1401V7.77988H39.1401V6.37988H33.8801C33.4534 5.55322 33.0201 4.73322 32.5801 3.91988L31.0801 4.37988ZM28.7801 16.7199H36.0201V19.4799H28.7801V16.7199ZM27.2401 12.4199V13.7199H37.5401V12.4199H27.2401ZM27.2401 9.47988V10.7599H37.5401V9.47988H27.2401Z" fill="black"/>
<path d="M41.9001 19.0799L42.3601 20.6199C43.0667 20.4999 43.7801 20.4132 44.5001 20.3599C48.2067 20.1466 51.9267 19.9732 55.6601 19.8399L56.9201 21.4399L58.2001 20.3999C56.4134 18.1599 54.6134 15.9266 52.8001 13.6999L51.5401 14.5999C52.5401 15.8532 53.5334 17.1132 54.5201 18.3799L45.0201 18.8399C46.0067 17.7999 46.9201 16.6866 47.7601 15.4999C48.5734 14.3932 49.3201 13.2465 50.0001 12.0599H58.8001V10.5799H41.2001V12.0599H48.0801C47.4401 13.1665 46.7401 14.2265 45.9801 15.2399C45.1934 16.3066 44.3401 17.3066 43.4201 18.2399C42.9667 18.6399 42.4601 18.9199 41.9001 19.0799ZM42.8001 5.23988V6.71988H57.2001V5.23988H42.8001Z" fill="black"/>
<path d="M68.0401 6.63988L68.2801 8.09988C69.2001 7.97988 70.1201 7.83322 71.0401 7.65988V12.2999L67.7801 12.6799L67.7401 12.1599L67.6601 11.5399L65.5401 12.2599V9.17988H67.9801V7.69988H65.5401V4.01988H64.0601V7.69988H61.2201V9.17988H64.0601V12.7599C62.9401 13.1465 61.8201 13.4999 60.7001 13.8199L61.0601 15.2399L64.0601 14.2399V19.0599C64.0601 19.2732 64.0334 19.4732 63.9801 19.6599C63.9534 19.7666 63.9067 19.8599 63.8401 19.9399C63.7201 20.0332 63.5801 20.0932 63.4201 20.1199C63.1934 20.1599 62.9667 20.1799 62.7401 20.1799H61.1401L61.4201 21.6599H63.2201C63.6201 21.6599 64.0134 21.6199 64.4001 21.5399C64.6134 21.4866 64.8067 21.3999 64.9801 21.2799C65.1934 21.1066 65.3401 20.8932 65.4201 20.6399C65.5001 20.2799 65.5401 19.9199 65.5401 19.5599V13.7399L67.4801 13.0799L67.6001 14.1799L71.0401 13.7799V18.7999C71.0267 19.2665 71.0667 19.7132 71.1601 20.1399C71.2267 20.3799 71.3401 20.5932 71.5001 20.7799C71.7134 21.0199 71.9734 21.1866 72.2801 21.2799C72.7067 21.3732 73.1401 21.4199 73.5801 21.4199H75.6801C76.1067 21.4199 76.5334 21.3799 76.9601 21.2999C77.2667 21.2332 77.5467 21.0999 77.8001 20.8999C77.9601 20.7399 78.0867 20.5599 78.1801 20.3599C78.3134 19.9866 78.3934 19.5999 78.4201 19.1999C78.4867 18.1466 78.5401 17.0799 78.5801 15.9999L77.1201 15.6599C77.0934 16.5932 77.0667 17.5132 77.0401 18.4199C77.0267 18.6999 76.9867 18.9732 76.9201 19.2399C76.8801 19.4132 76.7934 19.5666 76.6601 19.6999C76.5401 19.7799 76.4067 19.8399 76.2601 19.8799C75.9801 19.9332 75.7001 19.9532 75.4201 19.9399H73.7801C73.5667 19.9532 73.3534 19.9332 73.1401 19.8799C72.9934 19.8399 72.8734 19.7599 72.7801 19.6399C72.7001 19.5332 72.6534 19.4199 72.6401 19.2999C72.5867 19.0465 72.5667 18.7866 72.5801 18.5199V13.5999L79.0801 12.8599L78.9201 11.3799L72.5801 12.1199V7.35988C74.3801 7.01322 76.1667 6.59322 77.9401 6.09988L77.6201 4.65988C76.1801 5.05988 74.7334 5.41322 73.2801 5.71988C71.5467 6.09322 69.8001 6.39988 68.0401 6.63988Z" fill="black"/>
<path d="M83.6201 12.0999V22.0999H85.1801V21.2599H95.0401V22.0399H96.6001V17.2799H85.1801V15.8399H96.1401V12.0999H83.6201ZM81.8601 9.43988V12.3199H83.4401V10.6399H96.5801V12.3199H98.1601V9.43988H91.1601C90.8401 8.91988 90.5067 8.40655 90.1601 7.89988L88.8601 8.29988L89.6001 9.43988H81.8601ZM81.0801 8.47988L82.2801 9.31988C82.9867 8.58655 83.6467 7.79322 84.2601 6.93988H85.8401L85.3401 7.25988C85.8467 7.87322 86.3267 8.49988 86.7801 9.13988L87.9001 8.41988C87.5134 7.92655 87.1201 7.43322 86.7201 6.93988H90.3201V5.67988H85.0801C85.3601 5.22655 85.6201 4.74655 85.8601 4.23988L84.3801 3.87988C83.5401 5.59988 82.4401 7.13322 81.0801 8.47988ZM89.9201 7.73988L91.3001 8.35988C91.6334 7.90655 91.9467 7.43322 92.2401 6.93988H93.9801L93.5001 7.25988C94.0334 7.87322 94.5401 8.50655 95.0201 9.15988L96.1201 8.41988C95.7201 7.92655 95.3134 7.43322 94.9001 6.93988H98.9201V5.67988H92.9201C93.1601 5.19988 93.3867 4.69988 93.6001 4.17988L92.1201 3.89988C91.5734 5.29988 90.8401 6.57988 89.9201 7.73988ZM95.0401 18.4399V20.0999H85.1801V18.4399H95.0401ZM85.1801 13.2599H94.6001V14.6599H85.1801V13.2599Z" fill="black"/>
<path d="M109.549 21.3418C112.693 21.3418 115.008 19.4863 115.398 16.7031H113.221C112.83 18.2949 111.414 19.3008 109.549 19.3008C107.01 19.3008 105.428 17.2402 105.428 13.959C105.428 10.668 107.01 8.60742 109.539 8.60742C111.395 8.60742 112.811 9.7207 113.221 11.4492H115.398C115.047 8.57812 112.645 6.56641 109.539 6.56641C105.623 6.56641 103.191 9.38867 103.191 13.959C103.191 18.5195 105.633 21.3418 109.549 21.3418Z" fill="black"/>
<path d="M127.068 18.9883H120.467V6.9082H118.279V21H127.068V18.9883Z" fill="black"/>
<path d="M132.029 21V6.9082H129.842V21H132.029Z" fill="black"/>
</svg>
