<svg width="40" height="40" viewBox="0 0 40 40" fill="none" xmlns="http://www.w3.org/2000/svg">
<path opacity="0.5" d="M15.8563 21.1099L10.7163 22.4899C10.5797 22.5267 10.4369 22.5341 10.2972 22.5116C10.1576 22.4892 10.0243 22.4373 9.90611 22.3595C9.78797 22.2817 9.68768 22.1797 9.61187 22.0602C9.53606 21.9408 9.48646 21.8066 9.46634 21.6666C9.37752 21.1155 9.33294 20.5581 9.33301 19.9999C9.33301 17.1709 10.4568 14.4578 12.4572 12.4574C14.4576 10.4571 17.1707 9.33325 19.9997 9.33325C22.8287 9.33325 25.5418 10.4571 27.5421 12.4574C29.5425 14.4578 30.6663 17.1709 30.6663 19.9999C30.6665 20.5581 30.622 21.1155 30.533 21.6666C30.5116 21.8057 30.4611 21.9388 30.3848 22.0571C30.3084 22.1753 30.208 22.2762 30.09 22.3529C29.972 22.4297 29.8391 22.4807 29.7001 22.5026C29.561 22.5245 29.4189 22.5167 29.283 22.4799L24.143 21.1099C21.4286 20.3833 18.5708 20.3833 15.8563 21.1099Z" fill="#07C160"/>
<path fill-rule="evenodd" clip-rule="evenodd" d="M5.33398 19.9999C5.33398 11.8997 11.9005 5.33325 20.0006 5.33325C28.1008 5.33325 34.6673 11.8997 34.6673 19.9999C34.6673 28.1001 28.1008 34.6666 20.0006 34.6666C11.9005 34.6666 5.33398 28.1001 5.33398 19.9999ZM20.0006 3.33325C10.7959 3.33325 3.33398 10.7952 3.33398 19.9999C3.33398 29.2047 10.7959 36.6666 20.0006 36.6666C29.2054 36.6666 36.6673 29.2047 36.6673 19.9999C36.6673 10.7952 29.2054 3.33325 20.0006 3.33325ZM26.1465 15.0667C26.1985 15.0407 26.2558 15.027 26.314 15.0266H26.3273C26.3931 15.0245 26.458 15.0418 26.514 15.0766C26.593 15.1222 26.6523 15.1955 26.6806 15.2822C26.7089 15.369 26.7042 15.4631 26.6673 15.5466C23.3473 23.0088 21.5506 26.9788 21.2773 27.4566C21.1108 27.7068 20.884 27.9109 20.6177 28.0502C20.3515 28.1894 20.0544 28.2593 19.754 28.2532C19.491 28.2568 19.2315 28.1925 19.0006 28.0666C18.6405 27.8253 18.3802 27.4615 18.268 27.0428C18.1558 26.6241 18.1994 26.1789 18.3906 25.7899C18.6662 25.3144 21.2073 21.7766 26.014 15.1766C26.0491 15.1303 26.0945 15.0927 26.1465 15.0667Z" fill="black" fill-opacity="0.9"/>
</svg>
