<svg xmlns="http://www.w3.org/2000/svg" width="100.644" height="89.546" viewBox="0 0 100.644 89.546">
  <path id="react" d="M50.322,92.279a8.97,8.97,0,1,0,8.97,8.97A8.97,8.97,0,0,0,50.322,92.279ZM25.194,119.093l-1.979-.5C8.462,114.861,0,108.533,0,101.233S8.462,87.6,23.215,83.876l1.979-.5.558,1.963a98.672,98.672,0,0,0,5.716,15l.424.893-.424.893a97.737,97.737,0,0,0-5.716,15l-.558,1.958ZM22.3,88.459C11.083,91.608,4.2,96.427,4.2,101.233s6.882,9.62,18.095,12.773a104.627,104.627,0,0,1,4.957-12.773A103.8,103.8,0,0,1,22.3,88.459Zm53.152,30.633-.558-1.967a97.948,97.948,0,0,0-5.72-15l-.424-.893.424-.893a98.212,98.212,0,0,0,5.72-15l.558-1.963,1.984.5c14.748,3.728,23.211,10.056,23.211,17.361s-8.462,13.629-23.211,17.357Zm-2.059-17.86a103.688,103.688,0,0,1,4.957,12.773c11.218-3.154,18.095-7.972,18.095-12.773s-6.882-9.62-18.095-12.773A103.947,103.947,0,0,1,73.39,101.233ZM22.267,88.438,21.71,86.48c-4.147-14.618-2.889-25.094,3.451-28.751,6.219-3.59,16.2.65,26.666,11.39l1.426,1.464-1.426,1.464A98.762,98.762,0,0,0,41.671,84.488L41.1,85.3l-.985.084a99.2,99.2,0,0,0-15.872,2.558l-1.979.5Zm7.951-27.8a5.851,5.851,0,0,0-2.956.725c-4.168,2.4-4.906,10.756-2.034,22.028a105.348,105.348,0,0,1,13.558-2.1A104.2,104.2,0,0,1,47.391,70.62c-6.542-6.37-12.736-9.985-17.172-9.985ZM70.43,146.023h0c-5.976,0-13.65-4.5-21.613-12.677l-1.426-1.464,1.426-1.464a98.673,98.673,0,0,0,10.152-12.446l.566-.809.981-.084A99.093,99.093,0,0,0,76.4,114.526l1.979-.5.562,1.963c4.139,14.61,2.885,25.09-3.455,28.742a9.981,9.981,0,0,1-5.053,1.292ZM53.253,131.845c6.542,6.37,12.736,9.985,17.172,9.985h0a5.835,5.835,0,0,0,2.952-.725c4.168-2.4,4.911-10.76,2.034-22.033a104.923,104.923,0,0,1-13.562,2.1,103.47,103.47,0,0,1-8.6,10.672ZM78.376,88.438l-1.979-.5a98.457,98.457,0,0,0-15.881-2.558l-.981-.084-.566-.809A98.185,98.185,0,0,0,48.816,72.046l-1.426-1.464,1.426-1.464C59.275,58.384,69.255,54.144,75.483,57.729c6.341,3.657,7.6,14.132,3.455,28.746Zm-16.522-7.15a104.577,104.577,0,0,1,13.562,2.1c2.877-11.272,2.134-19.625-2.034-22.028-4.143-2.394-11.93,1.275-20.129,9.259A104.205,104.205,0,0,1,61.854,81.288ZM30.218,146.023a9.981,9.981,0,0,1-5.057-1.292c-6.341-3.653-7.6-14.128-3.451-28.742l.554-1.963,1.979.5a98.98,98.98,0,0,0,15.872,2.554l.985.084.562.809a98.949,98.949,0,0,0,10.157,12.446l1.426,1.464-1.426,1.464c-7.959,8.177-15.633,12.677-21.6,12.677Zm-4.99-26.952c-2.877,11.272-2.134,19.63,2.034,22.033,4.139,2.361,11.922-1.279,20.129-9.259a104.825,104.825,0,0,1-8.605-10.672,104.736,104.736,0,0,1-13.558-2.1Zm25.094,2.633c-3.451,0-7-.151-10.551-.445l-.985-.084-.566-.809q-3.014-4.33-5.661-8.9t-4.89-9.343l-.419-.893.419-.893q2.25-4.771,4.89-9.343c1.736-3,3.644-6,5.661-8.9l.566-.809.985-.084a124.9,124.9,0,0,1,21.106,0l.981.084.562.809a125.828,125.828,0,0,1,10.555,18.242l.424.893-.424.893A124.129,124.129,0,0,1,62.42,120.367l-.562.809-.981.084C57.325,121.554,53.773,121.705,50.322,121.705Zm-9.213-4.546a121.8,121.8,0,0,0,18.43,0,121.637,121.637,0,0,0,9.209-15.927,119.873,119.873,0,0,0-9.213-15.927,121.743,121.743,0,0,0-18.426,0A119.416,119.416,0,0,0,31.9,101.233a122.091,122.091,0,0,0,9.213,15.927Z" transform="translate(0 -56.479)" fill="#fff"/>
</svg>
