<svg xmlns="http://www.w3.org/2000/svg" width="74.44" height="100.36" viewBox="0 0 74.44 100.36">
  <path id="svelte" d="M155.253,13.643C147.061.3,131.011-3.551,118.664,4.852l-20.908,14.9a26.927,26.927,0,0,0-10.79,18,30.864,30.864,0,0,0,2.5,18.126A27.578,27.578,0,0,0,85.92,65.927a31.4,31.4,0,0,0,4.331,21.6c8.2,13.311,24.214,17.194,36.589,8.875l20.908-14.9a26.94,26.94,0,0,0,10.753-18A30.864,30.864,0,0,0,156,45.415a31.306,31.306,0,0,0-.747-31.773Zm-38.68,75.183c-6.724,1.96-13.824-1-17.772-7.409A18.747,18.747,0,0,1,96.187,68.4l.411-2.219.373-1.381,1.12.837a24.96,24.96,0,0,0,8.177,4.6l.747.293-.075.837a6.265,6.265,0,0,0,.821,3.474,4.762,4.762,0,0,0,5.414,2.3,6.09,6.09,0,0,0,1.269-.586l20.834-14.9a5.073,5.073,0,0,0,1.979-3.223,5.94,5.94,0,0,0-.747-3.935A4.821,4.821,0,0,0,131.1,52.28a6.518,6.518,0,0,0-1.307.628l-7.878,5.609c-7.46,4.969-17.076,2.63-22.028-5.358A18.817,18.817,0,0,1,97.27,40.141a16.272,16.272,0,0,1,6.608-10.884l20.8-14.9a15.893,15.893,0,0,1,4.256-2.093c6.721-1.967,13.814,1,17.772,7.368a19,19,0,0,1,2.128,15.237l-.373,1.381-1.083-.837a26.662,26.662,0,0,0-8.214-4.6l-.747-.251.075-.837a6.322,6.322,0,0,0-.821-3.516,4.766,4.766,0,0,0-5.414-2.219,6.091,6.091,0,0,0-1.269.586L110.114,39.6a4.971,4.971,0,0,0-1.941,3.265,5.821,5.821,0,0,0,.747,3.893,4.716,4.716,0,0,0,5.376,2.219,5.61,5.61,0,0,0,1.307-.586l7.953-5.693a14.287,14.287,0,0,1,4.256-2.135c6.758-1.967,13.814,1,17.772,7.409a18.916,18.916,0,0,1,2.688,12.977,16.3,16.3,0,0,1-6.534,10.884L120.9,86.69A17.358,17.358,0,0,1,116.573,88.825Z" transform="translate(-85.526 -0.413)" fill="#fff"/>
</svg>
